<svg width="177" height="44" viewBox="0 0 177 44" fill="none" xmlns="http://www.w3.org/2000/svg">
<path d="M15.435 1.13249e-06V0.98C14.3243 1.01267 13.475 1.14333 12.887 1.372C12.3317 1.568 11.956 1.96 11.76 2.548C11.564 3.10333 11.466 3.98533 11.466 5.194V30.086C11.466 31.0987 11.5313 31.85 11.662 32.34C11.8253 32.83 12.1193 33.1567 12.544 33.32C13.0013 33.4833 13.671 33.565 14.553 33.565H16.954C18.0647 33.565 19.11 33.3037 20.09 32.781C21.07 32.2583 21.952 31.5233 22.736 30.576C23.52 29.596 24.1733 28.4363 24.696 27.097C25.2187 25.7577 25.6107 24.2713 25.872 22.638H26.999C26.901 23.7487 26.852 25.186 26.852 26.95C26.852 27.7013 26.8683 28.7957 26.901 30.233C26.9337 31.6703 27.0317 33.1567 27.195 34.692C25.529 34.6267 23.6507 34.594 21.56 34.594C19.4693 34.5613 17.6073 34.545 15.974 34.545C15.1573 34.545 14.112 34.545 12.838 34.545C11.564 34.545 10.192 34.5613 8.72198 34.594C7.25198 34.594 5.76565 34.6103 4.26298 34.643C2.76032 34.643 1.33932 34.6593 -1.55345e-05 34.692V33.712C1.04532 33.6467 1.82932 33.516 2.35198 33.32C2.87465 33.124 3.21765 32.732 3.38098 32.144C3.57698 31.556 3.67498 30.674 3.67498 29.498V5.194C3.67498 3.98533 3.57698 3.10333 3.38098 2.548C3.21765 1.96 2.85832 1.568 2.30298 1.372C1.78032 1.14333 1.01265 1.01267 -1.55345e-05 0.98V1.13249e-06C0.816651 0.0326674 1.91098 0.0653336 3.28298 0.0979999C4.68765 0.130666 6.17398 0.146999 7.74198 0.146999C9.17932 0.146999 10.584 0.130666 11.956 0.0979999C13.3607 0.0653336 14.5203 0.0326674 15.435 1.13249e-06ZM36.2271 35.035C34.7571 35.035 33.5321 34.7573 32.5521 34.202C31.5721 33.6467 30.8534 32.9117 30.3961 31.997C29.9387 31.0497 29.7101 30.0207 29.7101 28.91C29.7101 27.5053 30.0204 26.362 30.6411 25.48C31.2944 24.598 32.1274 23.8793 33.1401 23.324C34.1527 22.7687 35.2144 22.3113 36.3251 21.952C37.4684 21.5927 38.5464 21.2497 39.5591 20.923C40.6044 20.5637 41.4374 20.1553 42.0581 19.698C42.7114 19.208 43.0381 18.5873 43.0381 17.836V14.014C43.0381 13.1647 42.8911 12.4133 42.5971 11.76C42.3357 11.074 41.9111 10.5513 41.3231 10.192C40.7677 9.83267 40.0327 9.653 39.1181 9.653C38.4647 9.653 37.8114 9.751 37.1581 9.947C36.5047 10.1103 35.9657 10.4043 35.5411 10.829C36.4557 11.1557 37.1581 11.662 37.6481 12.348C38.1707 13.0013 38.4321 13.7527 38.4321 14.602C38.4321 15.7127 38.0401 16.5947 37.2561 17.248C36.5047 17.9013 35.6064 18.228 34.5611 18.228C33.3851 18.228 32.4867 17.8687 31.8661 17.15C31.2781 16.3987 30.9841 15.5003 30.9841 14.455C30.9841 13.5077 31.2127 12.7237 31.6701 12.103C32.1601 11.4823 32.8297 10.8943 33.6791 10.339C34.5937 9.81633 35.6881 9.408 36.9621 9.114C38.2687 8.82 39.6734 8.673 41.1761 8.673C42.6787 8.673 44.0344 8.83633 45.2431 9.163C46.4517 9.457 47.4644 10.0123 48.2811 10.829C49.0324 11.5803 49.5224 12.5113 49.7511 13.622C49.9797 14.7 50.0941 16.072 50.0941 17.738V31.066C50.0941 31.8827 50.1757 32.4543 50.3391 32.781C50.5024 33.075 50.7801 33.222 51.1721 33.222C51.4661 33.222 51.7437 33.1403 52.0051 32.977C52.2991 32.8137 52.6094 32.6177 52.9361 32.389L53.4261 33.222C52.7401 33.81 51.9397 34.2673 51.0251 34.594C50.1431 34.888 49.1467 35.035 48.0361 35.035C46.8274 35.035 45.8637 34.8717 45.1451 34.545C44.4264 34.1857 43.9037 33.712 43.5771 33.124C43.2831 32.536 43.1361 31.85 43.1361 31.066C42.3521 32.3073 41.4047 33.2873 40.2941 34.006C39.1834 34.692 37.8277 35.035 36.2271 35.035ZM39.7061 31.899C40.3594 31.899 40.9474 31.752 41.4701 31.458C42.0254 31.1313 42.5481 30.6087 43.0381 29.89V19.845C42.7441 20.335 42.3357 20.776 41.8131 21.168C41.2904 21.56 40.7351 21.9683 40.1471 22.393C39.5591 22.785 38.9874 23.226 38.4321 23.716C37.9094 24.206 37.4847 24.8103 37.1581 25.529C36.8314 26.2477 36.6681 27.1133 36.6681 28.126C36.6681 29.4 36.9457 30.3473 37.5011 30.968C38.0564 31.5887 38.7914 31.899 39.7061 31.899ZM64.3324 43.904C62.3071 43.904 60.4941 43.7243 58.8934 43.365C57.3254 43.0383 56.0841 42.5157 55.1694 41.797C54.2874 41.111 53.8464 40.2617 53.8464 39.249C53.8464 38.2363 54.3037 37.3217 55.2184 36.505C56.1331 35.721 57.4887 35.1003 59.2854 34.643L59.7264 35.427C59.1057 35.917 58.6484 36.4397 58.3544 36.995C58.0931 37.583 57.9624 38.1873 57.9624 38.808C57.9624 40.18 58.5831 41.2253 59.8244 41.944C61.0984 42.6953 62.8134 43.071 64.9694 43.071C66.4394 43.071 67.7461 42.875 68.8894 42.483C70.0654 42.091 70.9801 41.503 71.6334 40.719C72.3194 39.935 72.6624 38.9713 72.6624 37.828C72.6624 36.848 72.3031 36.015 71.5844 35.329C70.8657 34.6757 69.4284 34.349 67.2724 34.349H64.2344C62.8951 34.349 61.7191 34.202 60.7064 33.908C59.7264 33.614 58.9587 33.1567 58.4034 32.536C57.8481 31.8827 57.5704 31.066 57.5704 30.086C57.5704 28.714 58.1094 27.5053 59.1874 26.46C60.2654 25.4147 61.8661 24.4347 63.9894 23.52L64.4794 23.912C63.8587 24.304 63.2707 24.7287 62.7154 25.186C62.1927 25.6107 61.9314 26.166 61.9314 26.852C61.9314 27.8973 62.5847 28.42 63.8914 28.42H69.2324C71.0291 28.42 72.6297 28.6323 74.0344 29.057C75.4717 29.4817 76.5987 30.184 77.4154 31.164C78.2647 32.1113 78.6894 33.3527 78.6894 34.888C78.6894 36.4887 78.1667 37.975 77.1214 39.347C76.1087 40.719 74.5407 41.8133 72.4174 42.63C70.2941 43.4793 67.5991 43.904 64.3324 43.904ZM64.8224 24.255C62.9604 24.255 61.2944 23.9773 59.8244 23.422C58.3544 22.8667 57.1947 22.0173 56.3454 20.874C55.4961 19.7307 55.0714 18.2607 55.0714 16.464C55.0714 14.6673 55.4961 13.1973 56.3454 12.054C57.1947 10.878 58.3544 10.0287 59.8244 9.506C61.2944 8.95067 62.9604 8.673 64.8224 8.673C66.6844 8.673 68.3504 8.95067 69.8204 9.506C71.2904 10.0287 72.4501 10.878 73.2994 12.054C74.1487 13.1973 74.5734 14.6673 74.5734 16.464C74.5734 18.2607 74.1487 19.7307 73.2994 20.874C72.4501 22.0173 71.2904 22.8667 69.8204 23.422C68.3504 23.9773 66.6844 24.255 64.8224 24.255ZM64.8224 23.373C65.7044 23.373 66.3904 22.883 66.8804 21.903C67.3704 20.8903 67.6154 19.0773 67.6154 16.464C67.6154 13.8507 67.3704 12.054 66.8804 11.074C66.3904 10.0613 65.7044 9.555 64.8224 9.555C63.9731 9.555 63.2871 10.0613 62.7644 11.074C62.2744 12.054 62.0294 13.8507 62.0294 16.464C62.0294 19.0773 62.2744 20.8903 62.7644 21.903C63.2871 22.883 63.9731 23.373 64.8224 23.373ZM72.4664 12.887L71.4864 12.544C71.9764 11.27 72.7604 10.2083 73.8384 9.359C74.9491 8.50967 76.1414 8.085 77.4154 8.085C78.4607 8.085 79.2447 8.379 79.7674 8.967C80.3227 9.52233 80.6004 10.2573 80.6004 11.172C80.6004 12.152 80.3391 12.887 79.8164 13.377C79.2937 13.8343 78.7057 14.063 78.0524 14.063C77.4971 14.063 76.9744 13.867 76.4844 13.475C76.0271 13.083 75.7657 12.495 75.7004 11.711C75.6351 10.8943 75.9127 9.849 76.5334 8.575L76.8764 8.869C75.6351 9.32633 74.7041 9.86533 74.0834 10.486C73.4627 11.074 72.9237 11.8743 72.4664 12.887ZM93.7868 8.673C96.1714 8.673 98.2621 9.114 100.059 9.996C101.855 10.878 103.26 12.299 104.273 14.259C105.285 16.219 105.792 18.816 105.792 22.05C105.792 25.284 105.285 27.881 104.273 29.841C103.26 31.7683 101.855 33.173 100.059 34.055C98.2621 34.937 96.1714 35.378 93.7868 35.378C91.4674 35.378 89.3931 34.937 87.5638 34.055C85.7671 33.173 84.3461 31.7683 83.3008 29.841C82.2881 27.881 81.7818 25.284 81.7818 22.05C81.7818 18.816 82.2881 16.219 83.3008 14.259C84.3461 12.299 85.7671 10.878 87.5638 9.996C89.3931 9.114 91.4674 8.673 93.7868 8.673ZM93.7868 9.653C92.4801 9.653 91.3858 10.633 90.5038 12.593C89.6218 14.5203 89.1808 17.6727 89.1808 22.05C89.1808 26.4273 89.6218 29.5797 90.5038 31.507C91.3858 33.4343 92.4801 34.398 93.7868 34.398C95.1261 34.398 96.2204 33.4343 97.0698 31.507C97.9518 29.5797 98.3928 26.4273 98.3928 22.05C98.3928 17.6727 97.9518 14.5203 97.0698 12.593C96.2204 10.633 95.1261 9.653 93.7868 9.653ZM121.493 8.673C123.877 8.673 125.968 9.114 127.765 9.996C129.561 10.878 130.966 12.299 131.979 14.259C132.991 16.219 133.498 18.816 133.498 22.05C133.498 25.284 132.991 27.881 131.979 29.841C130.966 31.7683 129.561 33.173 127.765 34.055C125.968 34.937 123.877 35.378 121.493 35.378C119.173 35.378 117.099 34.937 115.27 34.055C113.473 33.173 112.052 31.7683 111.007 29.841C109.994 27.881 109.488 25.284 109.488 22.05C109.488 18.816 109.994 16.219 111.007 14.259C112.052 12.299 113.473 10.878 115.27 9.996C117.099 9.114 119.173 8.673 121.493 8.673ZM121.493 9.653C120.186 9.653 119.092 10.633 118.21 12.593C117.328 14.5203 116.887 17.6727 116.887 22.05C116.887 26.4273 117.328 29.5797 118.21 31.507C119.092 33.4343 120.186 34.398 121.493 34.398C122.832 34.398 123.926 33.4343 124.776 31.507C125.658 29.5797 126.099 26.4273 126.099 22.05C126.099 17.6727 125.658 14.5203 124.776 12.593C123.926 10.633 122.832 9.653 121.493 9.653ZM154.785 8.673C156.157 8.673 157.268 8.85267 158.117 9.212C158.999 9.53867 159.685 9.996 160.175 10.584C160.698 11.2047 161.073 12.005 161.302 12.985C161.563 13.965 161.694 15.288 161.694 16.954V30.135C161.694 31.507 161.923 32.438 162.38 32.928C162.87 33.418 163.687 33.663 164.83 33.663V34.692C164.209 34.6593 163.278 34.6267 162.037 34.594C160.796 34.5287 159.571 34.496 158.362 34.496C157.121 34.496 155.896 34.5287 154.687 34.594C153.511 34.6267 152.613 34.6593 151.992 34.692V33.663C152.972 33.663 153.658 33.418 154.05 32.928C154.442 32.438 154.638 31.507 154.638 30.135V14.896C154.638 14.0793 154.556 13.377 154.393 12.789C154.23 12.1683 153.936 11.6947 153.511 11.368C153.086 11.0087 152.449 10.829 151.6 10.829C150.718 10.829 149.901 11.074 149.15 11.564C148.431 12.054 147.843 12.74 147.386 13.622C146.961 14.4713 146.749 15.435 146.749 16.513V30.135C146.749 31.507 146.945 32.438 147.337 32.928C147.762 33.418 148.448 33.663 149.395 33.663V34.692C148.807 34.6593 147.941 34.6267 146.798 34.594C145.687 34.5287 144.528 34.496 143.319 34.496C142.078 34.496 140.804 34.5287 139.497 34.594C138.19 34.6267 137.21 34.6593 136.557 34.692V33.663C137.7 33.663 138.501 33.418 138.958 32.928C139.448 32.438 139.693 31.507 139.693 30.135V14.7C139.693 13.23 139.464 12.152 139.007 11.466C138.582 10.7473 137.766 10.388 136.557 10.388V9.359C137.602 9.457 138.615 9.506 139.595 9.506C140.967 9.506 142.241 9.457 143.417 9.359C144.626 9.22833 145.736 9.04867 146.749 8.82V13.23C147.566 11.564 148.676 10.388 150.081 9.702C151.486 9.016 153.054 8.673 154.785 8.673ZM172.094 27.832C173.368 27.832 174.381 28.175 175.132 28.861C175.884 29.5143 176.259 30.429 176.259 31.605C176.259 32.781 175.884 33.712 175.132 34.398C174.381 35.0513 173.368 35.378 172.094 35.378C170.82 35.378 169.808 35.0513 169.056 34.398C168.305 33.712 167.929 32.781 167.929 31.605C167.929 30.429 168.305 29.5143 169.056 28.861C169.808 28.175 170.82 27.832 172.094 27.832Z" fill="#0C0D13"/>
</svg>
